<?xml version="1.0" standalone="no"?>
<!DOCTYPE svg PUBLIC "-//W3C//DTD SVG 20010904//EN"
 "http://www.w3.org/TR/2001/REC-SVG-20010904/DTD/svg10.dtd">
<svg version="1.0" xmlns="http://www.w3.org/2000/svg"
 width="512.000000pt" height="512.000000pt" viewBox="0 0 512.000000 512.000000"
 preserveAspectRatio="xMidYMid meet">

<g transform="translate(0.000000,512.000000) scale(0.100000,-0.100000)"
fill="#000000" stroke="none">
<path d="M3073 4867 c-23 -40 -38 -75 -34 -79 9 -10 1245 -696 1261 -700 16
-4 95 131 83 142 -4 5 -289 164 -633 355 -344 191 -628 349 -631 351 -3 2 -24
-29 -46 -69z"/>
<path d="M1620 4335 c-498 -277 -917 -514 -931 -527 -21 -19 -55 -112 -179
-483 -84 -253 -153 -461 -154 -462 -1 -1 -51 -10 -111 -19 -125 -20 -155 -38
-155 -96 0 -18 20 -112 45 -208 37 -146 48 -179 70 -197 14 -13 34 -23 44 -23
10 0 85 14 166 30 81 17 156 30 167 30 17 0 18 -18 18 -389 l0 -389 -53 -30
c-148 -84 -234 -277 -195 -442 8 -36 18 -72 22 -81 6 -13 -1 -17 -35 -22 -67
-9 -160 -61 -218 -122 -129 -136 -156 -320 -71 -487 l30 -58 -40 0 -40 0 0
-85 0 -85 2560 0 2560 0 0 85 c0 79 -1 85 -21 85 -13 0 -19 5 -15 13 65 155
37 299 -78 404 -51 47 -53 50 -59 116 -8 88 -45 163 -107 221 -75 70 -127 90
-232 91 l-88 0 0 588 c0 564 1 587 18 587 11 0 86 -13 167 -30 81 -16 156 -30
166 -30 10 0 30 10 44 22 22 19 33 52 70 198 49 192 53 225 30 257 -17 25 -52
35 -170 53 l-81 12 -153 459 c-84 252 -160 468 -169 479 -9 11 -426 248 -927
526 -695 386 -919 507 -950 510 -37 3 -112 -37 -945 -501z m-750 -2896 c60
-27 98 -64 126 -124 79 -167 -44 -355 -231 -355 -205 1 -319 224 -202 397 64
95 200 131 307 82z m3785 -410 c88 -25 134 -110 113 -211 -16 -77 -4 -101 67
-134 88 -42 125 -115 103 -201 -13 -52 -71 -109 -120 -118 -18 -3 -241 -5
-495 -3 -448 3 -462 4 -489 24 -48 35 -67 70 -72 128 -4 45 0 63 18 93 42 72
96 93 200 79 62 -9 72 -8 91 10 12 10 28 35 36 54 39 93 104 123 226 106 68
-10 88 2 117 69 21 47 63 88 105 103 40 14 53 14 100 1z m-4125 -185 c78 -33
138 -118 147 -209 19 -186 -178 -331 -347 -254 -149 67 -202 237 -115 371 67
102 198 140 315 92z m684 -2 c47 -21 99 -70 123 -116 9 -17 18 -62 20 -101 4
-62 1 -76 -24 -125 -83 -162 -298 -188 -417 -49 -46 55 -59 96 -54 179 5 89
42 152 117 197 29 18 65 34 80 36 43 8 110 -2 155 -21z"/>
<path d="M4544 4098 c-9 -18 -27 -51 -40 -74 l-24 -40 67 -37 c37 -21 70 -34
74 -30 4 5 23 38 43 74 l37 67 -66 36 c-36 20 -68 36 -70 36 -3 0 -12 -15 -21
-32z"/>
</g>
</svg>
